# xmcd CD database file
#
# Track frame offsets:
#	150
#	14015
#	33513
#	47291
#	73823
#	88813
#	106447
#	125847
#	142405
#	152778
#	171201
#	183853
#
# Disc length: 2684 seconds
#
# Revision: 2
# Processed by: cddbd v1.5.1PL2 Copyright (c) Steve Scherf et al.
# Submitted via: CDex 1.50
#
DISCID=af0a7a0c
DTITLE=Variados - Country Collection - Volume 2
DYEAR=1997
DGENRE=Country
TTITLE0=Bob Woodruff - Cry Behind The Wheel
TTITLE1=Shanaia T. - You Win My Love
TTITLE2=Steve Haggard - Unbreakable Heart
TTITLE3=Bob Reeves - Baker Street
TTITLE4=Linda Jonathan - Soley, Soley
TTITLE5=John Wemer - Carolina In My Mind
TTITLE6=Doug Wayne and Vic Vince - Unbreak My Heart
TTITLE7=Lyroe Donald - Woman
TTITLE8=Clinton Gregory - She Takes The Sad Out Saturday Night
TTITLE9=Bellamy Brothers - Clowboy Beat
TTITLE10=Johnny Hill - Don't Rock The Jukebox
TTITLE11=Highway 101 and Paulette Carlson Reunited - Setting Me Up
EXTD=YEAR: 1997
EXTT0=
EXTT1=
EXTT2=
EXTT3=
EXTT4=
EXTT5=
EXTT6=
EXTT7=
EXTT8=
EXTT9=
EXTT10=
EXTT11=
PLAYORDER=
